<?xml version="1.0" encoding="UTF-8" standalone="no"?>
<svg
   viewBox="0 0 512 512"
   version="1.1"
   id="svg1"
   sodipodi:docname="blog-rss.svg"
   xml:space="preserve"
   inkscape:version="1.4 (e7c3feb100, 2024-10-09)"
   xmlns:inkscape="http://www.inkscape.org/namespaces/inkscape"
   xmlns:sodipodi="http://sodipodi.sourceforge.net/DTD/sodipodi-0.dtd"
   xmlns="http://www.w3.org/2000/svg"
   xmlns:svg="http://www.w3.org/2000/svg"><defs
     id="defs1" /><sodipodi:namedview
     id="namedview1"
     pagecolor="#ffffff"
     bordercolor="#000000"
     borderopacity="0.25"
     inkscape:showpageshadow="2"
     inkscape:pageopacity="0.0"
     inkscape:pagecheckerboard="0"
     inkscape:deskcolor="#d1d1d1"
     inkscape:zoom="0.40933329"
     inkscape:cx="230.86322"
     inkscape:cy="151.46581"
     inkscape:window-width="1290"
     inkscape:window-height="761"
     inkscape:window-x="50"
     inkscape:window-y="32"
     inkscape:window-maximized="1"
     inkscape:current-layer="svg1" /><!--!Font Awesome Free 6.6.0 by @fontawesome - https://fontawesome.com License - https://fontawesome.com/license/free Copyright 2024 Fonticons, Inc.--><g
     id="g2"><circle
       style="fill:#111111;fill-opacity:1;stroke-width:6.87351"
       id="path2"
       cx="256"
       cy="256"
       r="256" /><path
       d="m 215.51384,114.29846 c 0,11.19695 9.04613,20.24308 20.24308,20.24308 78.25215,0 141.70154,63.44939 141.70154,141.70154 0,11.19695 9.04612,20.24308 20.24308,20.24308 11.19695,0 20.24307,-9.04613 20.24307,-20.24308 0,-100.64605 -81.54164,-182.187697 -182.18769,-182.187697 -11.19695,0 -20.24308,9.046127 -20.24308,20.243077 z m 0,60.72924 c 0,11.19695 9.04613,20.24307 20.24308,20.24307 44.72454,0 80.97231,36.24777 80.97231,80.97231 0,11.19695 9.04612,20.24308 20.24307,20.24308 11.19695,0 20.24308,-9.04613 20.24308,-20.24308 0,-67.05519 -54.40327,-121.45847 -121.45846,-121.45847 -11.19695,0 -20.24308,9.04613 -20.24308,20.24309 z m -60.72923,10.12153 c 0,-16.7638 -13.60082,-30.36462 -30.36462,-30.36462 -16.76378,0 -30.364605,13.60082 -30.364605,30.36462 v 141.70155 c 0,50.29139 40.802455,91.09384 91.093835,91.09384 50.2914,0 91.09385,-40.80245 91.09385,-91.09384 0,-50.2914 -40.80245,-91.09385 -91.09385,-91.09385 h -10.12153 v 60.72923 h 10.12153 c 16.76382,0 30.36462,13.60081 30.36462,30.36462 0,16.76379 -13.60081,30.36461 -30.36462,30.36461 -16.76378,0 -30.3646,-13.60082 -30.3646,-30.36461 z"
       id="path1"
       style="fill:#f77b33;fill-opacity:1;stroke-width:0.632596" /></g></svg>
